<svg xmlns="http://www.w3.org/2000/svg" width="316" height="475" viewBox="-0.302 -0.785 316 475"><path fill="#7D7D7D" d="M37.444 327.027L0 350.863l122.56 122.563 23.835-37.45"/><path fill="#EC5D5D" d="M56.062 417.355c-11.28-11.28-29.193-11.655-40.015-.84C3.644 428.922 5 461.613 8.405 465.023c3.403 3.404 36.09 4.754 48.5-7.648 10.82-10.82 10.444-28.735-.843-40.02z"/><path fill="#F5C21C" d="M51.727 421.9c-6.095-6.36-15.77-6.574-21.618-.476-6.7 6.994-5.97 25.428-4.13 27.354 1.838 1.92 19.498 2.68 26.202-4.313 5.846-6.1 5.64-16.203-.455-22.565z"/><path fill="#B0CED8" d="M309.81 163.61s-109.555-33.007-204.06 61.493c-47.77 47.77-98.94 57.665-98.94 57.665L0 289.574 183.848 473.43l6.806-6.814s9.896-51.17 57.666-98.94c94.5-94.51 61.49-204.065 61.49-204.065z"/><path fill="#EC5D5D" d="M296.577 336.102c8.366-8.365-20.383-50.113-63.87-93.603-43.48-43.483-85.094-72.385-93.464-64.016-.098.098.177-.12.185-.11l-.035-.036L19.718 298.012c-7.446 9.296 21.02 51.35 64.507 94.832 43.49 43.492 85.525 71.942 93.898 63.572l119.672-119.674-.958-.958c.005.003-.358.417-.26.318z"/><path fill="#D35454" d="M298.044 336.494c7.758-7.758-21.412-49.5-65.155-93.245-43.747-43.746-85.492-72.918-93.25-65.16-7.756 7.754 21.42 49.498 65.165 93.243 43.745 43.745 85.48 72.917 93.24 65.16z"/><g fill="#FFF"><path d="M75.87 338.08c-9.69-11.326-18.936-23.045-27.717-35.13l17.224-17.224c9.232 11.67 18.81 23.064 28.71 34.174L75.87 338.08zM121.856 385.868c-10.94-10.11-21.48-20.65-31.588-31.588 23.365-23.335 46.73-46.67 70.098-70.005l31.493 31.496c-23.336 23.368-46.67 46.73-70.004 70.098zM173.188 427.98c-12.09-8.782-23.812-18.03-35.14-27.723 16.967-17.002 33.934-34.004 50.896-51.005 10.72 10.288 21.54 20.46 32.462 30.507l-48.218 48.22z"/></g><path fill="#B0CED8" d="M234.234 406.755l-.816-4.977-3.7 3.702-7.807 7.806c-1.148 1.146-9.033.62-30.666-14.676-17.974-12.708-39.61-31.444-60.777-52.61-20.553-20.554-39.603-42.925-52.188-61.302-15.108-22.062-15.397-29.995-14.218-31.177l6.703-6.702 3.927-3.924-5.496-.783c-2.71-.384-9.937 1.165-13.614 4.845-7.955 7.956-4.087 22.115 12.545 45.912 12.626 18.064 31.51 39.94 53.17 61.604 21.604 21.605 43.45 40.455 61.515 53.078 25.265 17.658 39.98 22.082 47.716 14.35 2.477-2.482 5.272-6.984 3.706-15.143z"/><circle fill="#B3B3B3" cx="258.618" cy="38.688" r="34.633"/><ellipse transform="rotate(114 264.06 45.443)" opacity=".6" fill="#4D4D4D" cx="264.052" cy="45.442" rx="9.045" ry="8.417"/><ellipse transform="rotate(94 279.906 35.233)" opacity=".6" fill="#4D4D4D" cx="279.905" cy="35.239" rx="11.064" ry="7.726"/><path opacity=".6" fill="#4D4D4D" d="M254.22 4.343c-.752.46-1.347 1.057-1.727 1.8-1.912 3.742 2.126 9.628 9.022 13.156 6.895 3.525 14.033 3.354 15.945-.384 1.916-3.74-2.125-9.63-9.02-13.155-.48-.245-.962-.468-1.442-.678-2.685-.667-5.49-1.027-8.38-1.027-1.49 0-2.957.105-4.398.288z"/><circle fill="#F5C21C" cx="201.76" cy="7.916" r="7.917"/></svg>