<?xml version="1.0" encoding="UTF-8" standalone="no"?>
<!-- Generator: Adobe Illustrator 12.0.0, SVG Export Plug-In . SVG Version: 6.00 Build 51448)  -->
<svg
   xmlns:dc="http://purl.org/dc/elements/1.1/"
   xmlns:cc="http://web.resource.org/cc/"
   xmlns:rdf="http://www.w3.org/1999/02/22-rdf-syntax-ns#"
   xmlns:svg="http://www.w3.org/2000/svg"
   xmlns="http://www.w3.org/2000/svg"
   xmlns:sodipodi="http://sodipodi.sourceforge.net/DTD/sodipodi-0.dtd"
   xmlns:inkscape="http://www.inkscape.org/namespaces/inkscape"
   version="1.0"
   id="Layer_1"
   width="2160"
   height="2160"
   viewBox="0 0 601 601"
   overflow="visible"
   enable-background="new 0 0 601 601"
   xml:space="preserve"
   sodipodi:version="0.32"
   inkscape:version="0.44"
   sodipodi:docname="I-35 (OK).svg"
   sodipodi:docbase="C:\Program Files\Inkscape\file"><metadata
   id="metadata2456"><rdf:RDF><cc:Work
       rdf:about=""><dc:format>image/svg+xml</dc:format><dc:type
         rdf:resource="http://purl.org/dc/dcmitype/StillImage" /></cc:Work></rdf:RDF></metadata><defs
   id="defs2454">
	
	
	
	

		
		
		
		
		
		
		
		
		
		
	
		
	
		
	
		
		
			
	
			
		
			
		
			
		
			
		
			
		
			
		
			
		
			
		
			
		
			
				
		</defs><sodipodi:namedview
   inkscape:window-height="573"
   inkscape:window-width="853"
   inkscape:pageshadow="2"
   inkscape:pageopacity="0.0"
   guidetolerance="10.0"
   gridtolerance="10.0"
   objecttolerance="10.0"
   borderopacity="1.0"
   bordercolor="#666666"
   pagecolor="#ffffff"
   id="base"
   width="24in"
   height="24in"
   units="in"
   inkscape:zoom="0.05656854"
   inkscape:cx="3939.9865"
   inkscape:cy="1183.1913"
   inkscape:window-x="443"
   inkscape:window-y="84"
   inkscape:current-layer="Layer_1" />
<path
   clip-rule="evenodd"
   d="M 300.5,0.5 C 335.17578,11.083008 371.98438,16.775879 410.12305,16.775879 C 448.26172,16.775879 485.07031,11.083008 519.74609,0.5 C 570.31152,64.408203 600.5,145.17871 600.5,233.00049 C 600.5,414.42578 471.66992,565.75586 300.5,600.5 C 129.33008,565.75586 0.5,414.42578 0.5,233.00049 C 0.5,145.17871 30.688477,64.408203 81.253906,0.5 C 115.9292,11.083008 152.73828,16.775879 190.87695,16.775879 C 229.01563,16.775879 265.8252,11.083008 300.5,0.5 z "
   id="path2393"
   style="fill:white;fill-rule:evenodd" /><path
   clip-rule="evenodd"
   stroke-miterlimit="3.863693"
   d="M 300.5,0.5 C 335.17578,11.083008 371.98438,16.775879 410.12305,16.775879 C 448.26172,16.775879 485.07031,11.083008 519.74609,0.5 C 570.31152,64.408203 600.5,145.17871 600.5,233.00049 C 600.5,414.42578 471.66992,565.75586 300.5,600.5 C 129.33008,565.75586 0.5,414.42578 0.5,233.00049 C 0.5,145.17871 30.688477,64.408203 81.253906,0.5 C 115.9292,11.083008 152.73828,16.775879 190.87695,16.775879 C 229.01563,16.775879 265.8252,11.083008 300.5,0.5 z "
   id="path2395"
   style="fill:none;fill-rule:evenodd;stroke:black;stroke-linecap:round;stroke-linejoin:round;stroke-miterlimit:3.863693" /><path
   d="M 27.491211,140.5 L 573.50879,140.5 C 581.33203,170.01416 585.5,201.01758 585.5,233.00049 C 585.5,406.0957 463.32813,550.68359 300.5,585.18164 C 137.67285,550.68359 15.5,406.0957 15.5,233.00049 C 15.5,201.01758 19.667969,170.01416 27.491211,140.5 z "
   id="path2399"
   style="fill:#003882" /><path
   d="M 410.12305,31.775879 C 446.10937,31.775879 480.98047,26.898438 514.09766,17.759766 C 538.1416,49.943848 556.92578,86.27832 569.17969,125.5 L 31.819824,125.5 C 44.074219,86.27832 62.858398,49.943848 86.902344,17.759766 C 120.01953,26.898438 154.89014,31.775879 190.87695,31.775879 C 228.91602,31.775879 265.7085,26.325684 300.50098,16.155273 C 335.29297,26.325684 372.08398,31.775879 410.12305,31.775879 z "
   id="path2403"
   style="fill:#b01c2e" /><rect
   style="fill:white;fill-rule:evenodd"
   id="rect2409"
   height="59.855957"
   width="8.3974609"
   clip-rule="evenodd"
   y="49.572266"
   x="116.75977" /><polygon
   style="fill:white;fill-rule:evenodd"
   id="polygon2413"
   points="165.49219,109.42822 146.99951,69.315918 146.99951,109.42822 138.42285,109.42822 138.42285,49.572266 146.99951,49.572266 163.4375,85.48584 163.4375,49.572266 172.01416,49.572266 172.01416,109.42822 165.49219,109.42822 "
   clip-rule="evenodd" /><polygon
   style="fill:white;fill-rule:evenodd"
   id="polygon2417"
   points="200.02051,57.523438 200.02051,109.42822 191.35449,109.42822 191.35449,57.523438 180.45557,57.523438 180.45557,49.572266 210.91943,49.572266 210.91943,57.523438 200.02051,57.523438 "
   clip-rule="evenodd" /><polygon
   style="fill:white;fill-rule:evenodd"
   id="polygon2421"
   points="219.04785,109.42822 219.04785,49.572266 247.18945,49.572266 247.18945,57.969727 227.62451,57.969727 227.62451,73.067871 240.04248,73.067871 240.04248,81.286621 227.62451,81.286621 227.62451,101.03027 249.51221,101.03027 249.51221,109.42822 219.04785,109.42822 "
   clip-rule="evenodd" /><path
   style="fill:white;fill-rule:evenodd"
   id="path2425"
   d="M 284.44189,109.42822 L 276.49072,81.286621 L 268.27148,81.286621 L 268.27148,109.42822 L 259.69531,109.42822 L 259.69531,49.572266 L 277.5625,49.572266 C 279.88574,49.572266 282.01465,49.959473 283.9502,50.733399 C 285.88574,51.507813 287.55371,52.580078 288.95313,53.949707 C 290.35352,55.319336 291.4248,57.001953 292.16943,58.99707 C 292.91406,60.992676 293.28613,63.181152 293.28613,65.563477 C 293.28613,69.137207 292.57129,72.174317 291.14209,74.675781 C 289.71289,77.177246 287.56836,78.963867 284.70996,80.035645 L 293.28613,109.42822 L 284.44189,109.42822 L 284.44189,109.42822 z M 284.88867,65.563477 C 284.88867,63.240723 284.17383,61.394531 282.74414,60.024414 C 281.31494,58.654785 279.43945,57.969727 277.11621,57.969727 L 268.27148,57.969727 L 268.27148,73.067871 L 277.11621,73.067871 C 279.61768,73.067871 281.53809,72.427734 282.87842,71.146484 C 284.21875,69.866699 284.88867,68.005371 284.88867,65.563477 z "
   clip-rule="evenodd" /><path
   style="fill:white;fill-rule:evenodd"
   id="path2429"
   d="M 333.93359,93.07959 C 333.93359,95.521484 333.50195,97.799316 332.63867,99.913574 C 331.77441,102.02783 330.58398,103.85938 329.06445,105.40771 C 327.5459,106.95654 325.78906,108.19238 323.79395,109.11523 C 321.79883,110.03857 319.63965,110.5 317.31641,110.5 C 314.69629,110.5 312.34375,109.99365 310.25977,108.98145 C 308.1748,107.96875 306.41797,106.59863 304.98828,104.87207 C 303.55859,103.14453 302.45703,101.14941 301.68359,98.886231 C 300.9082,96.622559 300.52148,94.270508 300.52148,91.828613 L 308.91895,91.828613 C 308.91895,93.07959 309.08301,94.31543 309.41016,95.535645 C 309.73828,96.756836 310.24414,97.858887 310.92969,98.841797 C 311.61426,99.824219 312.47852,100.61377 313.51953,101.20898 C 314.5625,101.80469 315.82813,102.10254 317.31641,102.10254 C 318.44824,102.10254 319.53516,101.86426 320.57813,101.3877 C 321.62012,100.91113 322.51367,100.25586 323.25781,99.422363 C 324.00195,98.588379 324.59766,97.620605 325.04492,96.519043 C 325.49121,95.416992 325.71484,94.270508 325.71484,93.07959 C 325.71484,91.352051 325.35742,89.818848 324.64258,88.478516 C 323.92773,87.138672 322.67773,85.783692 320.89063,84.413574 C 320.59277,84.115723 320.47363,83.95166 320.5332,83.922363 C 320.59277,83.892578 320.41406,83.728516 319.99707,83.431153 C 319.58008,83.132813 318.70117,82.552735 317.36133,81.688965 C 316.02148,80.825196 313.83301,79.351074 310.79492,77.266602 C 308.35352,75.598633 306.52246,73.648438 305.30078,71.414551 C 304.08008,69.181641 303.46973,66.725098 303.46973,64.044922 C 303.46973,61.900879 303.85645,59.890625 304.63086,58.014649 C 305.40527,56.138672 306.49219,54.48584 307.89258,53.056153 C 309.29102,51.626953 310.91406,50.510254 312.76074,49.706055 C 314.60742,48.901856 316.60254,48.5 318.74609,48.5 C 320.89063,48.5 322.87109,48.887207 324.6875,49.661621 C 326.50391,50.435547 328.08203,51.507813 329.42188,52.877441 C 330.76172,54.247559 331.83398,55.885254 332.63867,57.791016 C 333.44238,59.697266 333.87402,61.781738 333.93359,64.044922 L 325.71484,64.044922 C 325.5957,61.960449 324.88086,60.29248 323.57031,59.041992 C 322.25977,57.791016 320.65234,57.166016 318.74609,57.166016 C 316.78125,57.166016 315.11328,57.820801 313.74316,59.131348 C 312.37402,60.441406 311.68848,62.07959 311.68848,64.044922 C 311.68848,65.533691 312.07617,66.784668 312.84961,67.796875 C 313.625,68.80957 315.11328,69.940918 317.31641,71.191894 C 323.09375,74.526855 327.30859,77.921875 329.95801,81.376465 C 332.6084,84.830566 333.93359,88.731445 333.93359,93.07959 z "
   clip-rule="evenodd" /><polygon
   style="fill:white;fill-rule:evenodd"
   id="polygon2433"
   points="359.03613,57.523438 359.03613,109.42822 350.37109,109.42822 350.37109,57.523438 339.47168,57.523438 339.47168,49.572266 369.93555,49.572266 369.93555,57.523438 359.03613,57.523438 "
   clip-rule="evenodd" /><path
   style="fill:white;fill-rule:evenodd"
   id="path2437"
   d="M 403.07812,109.42822 L 398.87988,93.07959 L 386.01563,93.07959 L 382.08398,109.42822 L 373.41895,109.42822 L 388.33789,49.572266 L 396.73535,49.572266 L 411.65527,109.42822 L 403.07812,109.42822 z M 392.3584,67.439453 L 388.15918,84.681641 L 396.73535,84.681641 L 392.3584,67.439453 z "
   clip-rule="evenodd" /><polygon
   style="fill:white;fill-rule:evenodd"
   id="polygon2441"
   points="434.74805,57.523438 434.74805,109.42822 426.08301,109.42822 426.08301,57.523438 415.18359,57.523438 415.18359,49.572266 445.64746,49.572266 445.64746,57.523438 434.74805,57.523438 "
   clip-rule="evenodd" /><polygon
   style="fill:white;fill-rule:evenodd"
   id="polygon2445"
   points="453.77637,109.42822 453.77637,49.572266 481.91797,49.572266 481.91797,57.969727 462.35254,57.969727 462.35254,73.067871 474.77051,73.067871 474.77051,81.286621 462.35254,81.286621 462.35254,101.03027 484.24023,101.03027 484.24023,109.42822 453.77637,109.42822 "
   clip-rule="evenodd" />

<path
   style="font-size:55.12592316px;font-style:normal;font-weight:normal;fill:white;fill-opacity:1;stroke:none;stroke-width:1px;stroke-linecap:butt;stroke-linejoin:miter;stroke-opacity:1;font-family:Roadgeek 2005 Series D"
   d="M 196.41608,171.7645 C 196.41605,174.7052 196.06698,177.51689 195.36885,180.1996 C 194.67066,182.88234 193.67838,185.05083 192.392,186.7051 C 190.33395,189.46072 187.35739,190.83853 183.4623,190.83853 C 180.85246,190.83853 178.70247,190.3058 177.01232,189.24034 C 175.32216,188.17488 173.92584,186.50266 172.82337,184.22369 C 172.05175,182.64345 171.42705,180.72337 170.94928,178.46346 C 170.4715,176.20357 170.23261,173.97059 170.23262,171.7645 C 170.23261,168.71506 170.59094,165.8857 171.30761,163.27641 C 172.02427,160.66718 173.0073,158.48046 174.2567,156.71624 C 175.35917,155.31996 176.67305,154.2817 178.19835,153.60145 C 179.72363,152.92127 181.55174,152.58116 183.68268,152.58113 C 186.03453,152.58116 188.03732,153.11418 189.69105,154.18016 C 191.34474,155.24622 192.75984,156.91815 193.93636,159.19597 C 194.70795,160.85027 195.31414,162.77988 195.75494,164.9848 C 196.19567,167.18977 196.41605,169.44967 196.41608,171.7645 L 196.41608,171.7645 z M 190.57342,171.7645 C 190.5734,169.67061 190.38975,167.73231 190.02247,165.9496 C 189.65514,164.16694 189.10362,162.6509 188.36791,161.40148 C 187.78021,160.44595 187.10981,159.7478 186.35671,159.307 C 185.60358,158.86627 184.67579,158.60887 183.57333,158.53482 C 182.13999,158.46195 180.94555,158.79281 179.99001,159.52738 C 179.03445,160.26202 178.24432,161.45646 177.61964,163.1107 C 177.14185,164.2132 176.78352,165.54531 176.54464,167.10703 C 176.30574,168.6688 176.1863,170.22129 176.18631,171.7645 C 176.1863,173.74965 176.36995,175.66103 176.73727,177.49866 C 177.10456,179.33631 177.65552,180.84282 178.39014,182.01818 C 178.97893,182.97374 179.67737,183.6904 180.48545,184.16817 C 181.29351,184.64595 182.28579,184.88484 183.4623,184.88484 C 184.82159,184.88484 185.95154,184.51754 186.85215,183.78292 C 187.75273,183.04832 188.51538,181.85388 189.14009,180.1996 C 189.324,179.72184 189.50794,179.14313 189.69189,178.46346 C 189.8758,177.78382 190.03198,177.06716 190.16042,176.31347 C 190.28881,175.55981 190.38975,174.79716 190.46323,174.02553 C 190.53667,173.25393 190.5734,172.50025 190.57342,171.7645 L 190.57342,171.7645 z M 223.6695,190.17738 L 214.29903,172.70323 L 210.43982,177.49782 L 210.43982,190.17738 L 204.59547,190.17738 L 204.59547,153.24227 L 210.43982,153.24227 L 210.43982,167.90697 L 222.0713,153.24227 L 229.62319,153.24227 L 218.21209,167.63107 L 230.39537,190.17738 L 223.6695,190.17738 z M 236.68048,190.17738 L 236.68048,153.24227 L 242.52483,153.24227 L 242.52483,184.71997 L 259.61373,184.71997 L 259.61373,190.17738 L 236.68048,190.17738 z M 286.8806,190.17738 L 283.24176,179.81436 L 271.72131,179.81436 L 268.08247,190.17738 L 261.85288,190.17738 L 274.58796,153.24227 L 280.37511,153.24227 L 293.11019,190.17738 L 286.8806,190.17738 z M 277.56397,163.49595 L 273.76027,173.86066 L 281.14729,173.86066 L 277.56397,163.49595 z M 317.99155,190.17738 L 317.99155,174.08104 L 304.54149,174.08104 L 304.54149,190.17738 L 298.69714,190.17738 L 298.69714,153.24227 L 304.54149,153.24227 L 304.54149,168.12735 L 317.99155,168.12735 L 317.99155,153.24227 L 323.8359,153.24227 L 323.8359,190.17738 L 317.99155,190.17738 z M 358.02547,171.7645 C 358.02544,174.7052 357.67637,177.51689 356.97824,180.1996 C 356.28005,182.88234 355.28777,185.05083 354.00139,186.7051 C 351.94334,189.46072 348.96678,190.83853 345.07169,190.83853 C 342.46185,190.83853 340.31186,190.3058 338.62171,189.24034 C 336.93155,188.17488 335.53523,186.50266 334.43276,184.22369 C 333.66114,182.64345 333.03644,180.72337 332.55867,178.46346 C 332.08089,176.20357 331.842,173.97059 331.84201,171.7645 C 331.842,168.71506 332.20033,165.8857 332.917,163.27641 C 333.63366,160.66718 334.61669,158.48046 335.86609,156.71624 C 336.96856,155.31996 338.28244,154.2817 339.80774,153.60145 C 341.33302,152.92127 343.16113,152.58116 345.29207,152.58113 C 347.64392,152.58116 349.64671,153.11418 351.30044,154.18016 C 352.95413,155.24622 354.36923,156.91815 355.54575,159.19597 C 356.31734,160.85027 356.92353,162.77988 357.36433,164.9848 C 357.80506,167.18977 358.02544,169.44967 358.02547,171.7645 L 358.02547,171.7645 z M 352.18281,171.7645 C 352.18279,169.67061 351.99914,167.73231 351.63186,165.9496 C 351.26453,164.16694 350.71301,162.6509 349.9773,161.40148 C 349.3896,160.44595 348.7192,159.7478 347.9661,159.307 C 347.21297,158.86627 346.28518,158.60887 345.18272,158.53482 C 343.74938,158.46195 342.55494,158.79281 341.5994,159.52738 C 340.64384,160.26202 339.85371,161.45646 339.22903,163.1107 C 338.75124,164.2132 338.39291,165.54531 338.15403,167.10703 C 337.91513,168.6688 337.79569,170.22129 337.7957,171.7645 C 337.79569,173.74965 337.97934,175.66103 338.34666,177.49866 C 338.71395,179.33631 339.26491,180.84282 339.99953,182.01818 C 340.58832,182.97374 341.28676,183.6904 342.09484,184.16817 C 342.9029,184.64595 343.89518,184.88484 345.07169,184.88484 C 346.43098,184.88484 347.56093,184.51754 348.46154,183.78292 C 349.36212,183.04832 350.12477,181.85388 350.74948,180.1996 C 350.93339,179.72184 351.11733,179.14313 351.30128,178.46346 C 351.48519,177.78382 351.64137,177.06716 351.76981,176.31347 C 351.8982,175.55981 351.99914,174.79716 352.07262,174.02553 C 352.14606,173.25393 352.18279,172.50025 352.18281,171.7645 L 352.18281,171.7645 z M 389.13811,190.17738 L 389.13811,168.7885 L 380.59366,190.17738 L 372.04921,168.7885 L 372.04921,190.17738 L 366.20487,190.17738 L 366.20487,153.24227 L 372.04921,153.24227 L 380.59366,173.97001 L 389.13811,153.24227 L 394.98077,153.24227 L 394.98077,190.17738 L 389.13811,190.17738 z M 425.55675,190.17738 L 421.91791,179.81436 L 410.39745,179.81436 L 406.75862,190.17738 L 400.52903,190.17738 L 413.26411,153.24227 L 419.05126,153.24227 L 431.78634,190.17738 L 425.55675,190.17738 z M 416.24012,163.49595 L 412.43641,173.86066 L 419.82344,173.86066 L 416.24012,163.49595 z "
   id="text2524" /><path
   style="font-size:357.77926636px;font-style:normal;font-weight:normal;fill:white;fill-opacity:1;stroke:none;stroke-width:1px;stroke-linecap:butt;stroke-linejoin:miter;stroke-opacity:1;font-family:Roadgeek 2005 Series D"
   d="M 288.2817,367.347 C 288.28152,379.51034 286.25431,390.72005 282.20006,400.97616 C 278.14547,411.23236 272.48056,419.99813 265.20533,427.2735 C 257.92978,434.54891 249.22406,440.27387 239.08814,444.44839 C 228.95196,448.62292 217.8023,450.71018 205.63914,450.71018 C 195.85603,450.71018 186.73176,449.15974 178.26632,446.05888 C 169.80074,442.95801 162.04857,438.6652 155.00979,433.18044 C 147.97092,427.6957 141.94753,421.01719 136.93958,413.14489 C 131.93158,405.27265 128.23383,396.44864 125.84633,386.67285 L 163.05677,375.93991 C 165.92465,387.62282 171.17465,396.56511 178.80679,402.7668 C 186.43878,408.96858 195.97977,412.06944 207.42979,412.06941 C 213.86435,412.06944 219.70577,410.99579 224.95407,408.84844 C 230.20213,406.70116 234.6751,403.78045 238.37297,400.08629 C 242.07059,396.39223 244.99312,391.98114 247.14058,386.853 C 249.28775,381.72499 250.36141,376.06008 250.36155,369.85827 C 250.36141,363.65661 249.16765,357.81155 246.78026,352.32307 C 244.3926,346.83477 241.05517,342.54014 236.76795,339.43917 C 235.33385,338.48572 234.08003,337.71051 233.0065,337.11352 C 231.93272,336.51675 230.62068,336.10002 229.07036,335.86334 C 227.51981,335.62689 225.4926,335.3885 222.98873,335.14818 C 220.48463,334.90808 216.96521,334.67151 212.43048,334.43847 L 208.13949,334.43847 L 208.13949,295.7977 L 208.13949,296.86772 L 209.20951,296.86772 L 209.93013,296.86772 L 217.4421,296.86772 C 225.07769,296.86787 230.92276,294.84066 234.9773,290.78608 C 239.0316,286.73182 241.05881,280.88676 241.05894,273.25088 C 241.05881,263.94845 237.7796,256.25634 231.22132,250.17451 C 224.66279,244.09308 216.49208,241.05226 206.70916,241.05206 C 190.73159,241.05226 178.68479,248.92453 170.56874,264.66889 L 135.14894,251.42469 C 141.35065,236.16075 150.7133,224.17583 163.23693,215.46988 C 175.76044,206.76439 189.8945,202.41153 205.63914,202.41128 C 215.65499,202.41153 225.13593,204.32045 234.08198,208.13807 C 243.02778,211.95616 250.84,217.20434 257.51866,223.88263 C 264.19702,230.56136 269.44338,238.37176 273.25776,247.31385 C 277.07181,256.25634 278.97891,265.73909 278.97909,275.76215 C 278.97891,282.91761 278.02536,289.35773 276.11843,295.08253 C 274.21115,300.80764 270.63351,307.48433 265.38548,315.11263 C 269.92016,319.16718 273.61791,323.04326 276.47874,326.74089 C 279.33923,330.43876 281.66488,334.31484 283.4557,338.36915 C 285.24616,342.42368 286.49815,346.77654 287.21168,351.42775 C 287.92484,356.07914 288.28152,361.38555 288.2817,367.347 L 288.2817,367.347 z M 474.84242,358.04439 C 474.84223,371.4015 472.27819,383.68668 467.15029,394.89998 C 462.02204,406.11338 454.8067,415.89276 445.50426,424.23814 C 436.2015,432.58357 425.17013,439.08193 412.41011,443.73322 C 399.64985,448.38453 385.63771,450.71018 370.37367,450.71018 C 359.87722,450.71018 349.56102,449.51824 339.42502,447.13435 C 329.28892,444.75047 320.04637,441.41122 311.69734,437.11658 L 330.30256,403.48742 C 335.31049,406.10792 341.8689,408.19336 349.9778,409.74376 C 358.08658,411.29423 366.55209,412.06944 375.37437,412.06941 C 383.96354,412.06944 392.01414,410.69917 399.52621,407.95857 C 407.03806,405.21806 413.59829,401.46208 419.20691,396.69062 C 424.81527,391.91927 429.16813,386.25436 432.26551,379.69589 C 435.36259,373.13755 436.9112,365.92039 436.91135,358.04439 C 436.9112,352.08295 435.77931,346.5982 433.51568,341.59013 C 431.25176,336.58226 428.15271,332.16935 424.21853,328.35138 C 420.28408,324.53364 415.75288,321.55106 410.62493,319.40362 C 405.49673,317.25643 399.94829,316.18278 393.97959,316.18264 C 389.69213,316.18278 385.93797,316.54127 382.7171,317.25812 C 379.49603,317.97524 376.4534,319.28728 373.58918,321.19426 C 370.7248,323.10149 367.86232,325.66553 365.00174,328.88639 C 362.141,332.10747 358.92003,336.22195 355.33881,341.22981 L 317.41867,330.49687 L 323.5003,206.70228 L 461.24881,206.70228 L 461.24881,244.63334 L 360.35043,244.63334 L 357.85008,283.98382 C 366.6722,281.36353 373.58728,279.57653 378.59534,278.62281 C 383.60322,277.66942 389.09161,277.19265 395.06052,277.19248 C 406.02992,277.19265 416.3443,279.33814 426.00371,283.62897 C 435.66285,287.92012 444.13018,293.76336 451.40574,301.15871 C 458.68096,308.55435 464.40592,317.14179 468.58063,326.92105 C 472.75497,336.70054 474.84223,347.07498 474.84242,358.04439 L 474.84242,358.04439 z "
   id="text2528" />
</svg>